:SAMPLES-PER-SECOND 30
:FULLY-SPECIFIED
:DEGREES
1003
root  -69.3921 35.0694 -1.86936 -0.06604 -61.9579 129.563
RightUpLeg  -146.825 -36.0911 -5.56008
RightLeg  19.8091 -2.18639 -0.496891
RightFoot  -0.131674 -0.68557 6.96699
RightToes  3.49245e-010 0 -3.6325e-017
Spine  -153.303 -45.2526 -10.7308
Spine1  49.7969 -21.6481 6.33899
HEad  -31.2251 -25.398 14.4801
LeftShoulder1  2.2503 -4.48947 -21.8174
LeftArm  -10.2191 -24.824 -43.8298
LeftForeArm  0.122968 -18.1414 -4.65135
LeftHand  0.130655 7.63379 8.3451
RightShoulder  0.486954 -1.87644 24.1561
RightArm  15.0282 35.413 41.2107
RightForeArm  -8.18196 28.2304 6.50947
RightHand  -0.905198 9.33952 -7.49687
LeftUpLeg  -125.225 -11.216 0.390321
LeftLeg  1.60597 21.9185 -4.9014
LeftFoot  -0.0693312 0.534473 -5.40724
LeftToes  -5.36635e-011 -6.70219e-011 5.24975e-011
1004
root  -69.3319 35.0415 -1.57351 -0.346191 -62.1024 130.36
RightUpLeg  -147.67 -36.2293 -4.71978
RightLeg  19.4119 -1.81451 -0.157073
RightFoot  0.0305818 -0.744473 7.47146
RightToes  3.49245e-010 0 -3.6325e-017
Spine  -154.61 -45.3283 -9.94083
Spine1  49.2773 -21.857 6.23629
HEad  -30.304 -26.1791 14.0758
LeftShoulder1  2.10694 -3.50524 -23.8163
LeftArm  -4.18384 -18.3233 -42.5617
LeftForeArm  2.48133 -19.5205 -5.05985
LeftHand  0.137013 8.0164 7.36435
RightShoulder  0.251142 -2.696 26.0104
RightArm  17.7589 29.7362 39.0926
RightForeArm  -9.95952 24.8948 5.90883
RightHand  -0.898891 8.92151 -7.64634
LeftUpLeg  -125.446 -11.3298 -1.0618
LeftLeg  3.73712 17.1517 -3.41248
LeftFoot  -0.829334 0.569654 -6.1558
LeftToes  -5.36635e-011 -6.70219e-011 5.24975e-011
1005
root  -69.1971 35.4678 -1.23614 -5.26929 -63.9838 122.752
RightUpLeg  -136.035 -33.3003 -7.09633
RightLeg  20.8953 -0.35783 0.62364
RightFoot  -0.360574 -0.751379 7.77718
RightToes  3.49245e-010 0 -3.6325e-017
Spine  -144.019 -37.7145 -12.4998
Spine1  49.6853 -17.393 7.24214
HEad  -29.2961 -27.2505 13.72
LeftShoulder1  1.93947 -2.6089 -25.5818
LeftArm  2.95655 -12.0745 -41.2955
LeftForeArm  2.91342 -19.5722 -5.45404
LeftHand  0.107959 8.21399 6.49036
RightShoulder  0.0213609 -3.41548 27.3685
RightArm  18.0637 24.1939 37.6517
RightForeArm  -9.29657 18.2973 5.9441
RightHand  -0.761551 8.36278 -6.787
LeftUpLeg  -114.672 -14.5486 -7.54854
LeftLeg  8.80631 4.07736 0.357352
LeftFoot  -1.91063 0.621595 -7.37215
LeftToes  -5.36635e-011 -6.70219e-011 5.24975e-011
1006
root  -69.0464 35.4641 -0.847312 -6.96118 -64.6719 122.877
RightUpLeg  -134.811 -32.8996 -7.14772
RightLeg  20.6563 0.0168247 0.782532
RightFoot  -0.0810364 -0.818461 8.28291
RightToes  3.49245e-010 0 -3.6325e-017
Spine  -143.477 -36.4675 -12.1018
Spine1  49.4276 -16.9571 7.28041
HEad  -28.0441 -27.9635 13.1047
LeftShoulder1  1.69538 -1.55474 -27.3966
LeftArm  8.36554 -5.43007 -40.1216
LeftForeArm  6.49701 -19.2467 -5.96601
LeftHand  0.125375 10.5837 3.80321
RightShoulder  -0.0644526 -3.66466 27.9888
RightArm  12.0612 18.7548 36.4486
RightForeArm  -4.15113 9.47965 7.37594
RightHand  -0.65153 7.40917 -6.24356
LeftUpLeg  -114.135 -12.9426 -5.97294
LeftLeg  10.8731 1.07778 0.339479
LeftFoot  -2.61952 0.596253 -7.62502
LeftToes  -5.36635e-011 -6.70219e-011 5.24975e-011
1007
root  -68.8133 35.6082 -0.38381 -11.6039 -66.8938 121.143
RightUpLeg  -129.204 -30.2792 -7.88343
RightLeg  20.7021 1.17883 1.29225
RightFoot  0.195369 -0.88288 8.73571
RightToes  3.49245e-010 0 -3.6325e-017
Spine  -139.15 -30.4809 -11.9917
Spine1  49.7846 -13.6985 7.23788
HEad  -27.2492 -28.8059 12.7033
LeftShoulder1  1.49229 -0.797477 -28.595
LeftArm  7.87562 -0.396547 -39.6538
LeftForeArm  13.7438 -14.0989 -8.70628
LeftHand  0.0636088 8.69224 3.83436
RightShoulder  -0.217471 -4.09652 28.831
RightArm  8.62769 13.8955 35.2895
RightForeArm  -3.22851 1.14254 6.55971
RightHand  -0.521043 5.44683 -5.934
LeftUpLeg  -110.447 -9.76392 -3.45546
LeftLeg  14.6562 -2.71107 -0.472808
LeftFoot  -4.03318 0.595195 -8.92132
LeftToes  -5.36635e-011 -6.70219e-011 5.24975e-011
1008
root  -68.5759 35.3373 0.103102 -14.2414 -66.9625 125.164
RightUpLeg  -131.522 -30.5092 -7.63561
RightLeg  20.7962 1.8451 1.48845
RightFoot  0.530307 -0.972209 9.36853
RightToes  3.49245e-010 0 -3.6325e-017
Spine  -140.932 -29.9971 -11.9829
Spine1  50.6856 -12.9656 7.10957
HEad  -27.3657 -29.9215 12.9116
LeftShoulder1  1.38578 -0.352396 -29.8807
LeftArm  2.67899 4.7836 -39.5897
LeftForeArm  24.3105 -9.06525 -10.2824
LeftHand  0.00600484 9.22199 1.53931
RightShoulder  -0.396746 -4.58874 29.5444
RightArm  5.88393 8.18963 33.7287
RightForeArm  -4.69191 -3.70411 4.96855
RightHand  -0.46457 2.82854 -6.74693
LeftUpLeg  -112.213 -8.78328 -1.37745
LeftLeg  15.8457 -7.16004 -1.9826
LeftFoot  -4.80624 0.652887 -10.9393
LeftToes  -5.36635e-011 -6.70219e-011 5.24975e-011
1009
root  -68.2884 35.0135 0.601042 -16.5524 -65.8427 129.777
RightUpLeg  -134.994 -31.613 -7.19807
RightLeg  20.8239 2.75529 1.66055
RightFoot  0.928549 -1.09573 10.2226
RightToes  3.49245e-010 0 -3.6325e-017
Spine  -142.994 -31.8228 -12.0807
Spine1  51.2001 -13.7885 7.4963
HEad  -27.442 -30.2762 12.7223
LeftShoulder1  1.2322 0.223581 -31.5029
LeftArm  -1.91374 10.0041 -39.4692
LeftForeArm  30.7835 -4.77628 -10.0129
LeftHand  -0.034334 9.14415 0.728385
RightShoulder  -0.540587 -4.9745 29.8464
RightArm  3.72317 1.17939 31.8762
RightForeArm  -8.62223 -3.59457 3.53902
RightHand  -0.522904 2.57497 -7.8207
LeftUpLeg  -114.328 -8.52289 1.31059
LeftLeg  15.3586 -9.60716 -2.68317
LeftFoot  -5.67711 0.67638 -12.8649
LeftToes  -5.36635e-011 -6.70219e-011 5.24975e-011
1010
root  -67.9803 34.548 1.12107 -17.6557 -62.7233 137.234
RightUpLeg  -142.263 -34.2932 -6.19299
RightLeg  19.561 3.92352 1.57035
RightFoot  1.91796 -1.33072 11.5265
RightToes  3.49245e-010 0 -3.6325e-017
Spine  -148.684 -36.8918 -11.883
Spine1  51.7745 -15.8919 7.29088
HEad  -27.5981 -28.3011 13.1884
LeftShoulder1  1.02415 0.845686 -32.4491
LeftArm  -4.56288 15.8849 -39.9748
LeftForeArm  31.9981 -2.51082 -8.3546
LeftHand  -0.145928 10.0963 -2.23442
RightShoulder  -0.768251 -5.55096 30.8766
RightArm  3.35639 -5.05029 29.2331
RightForeArm  -14.3667 -0.846393 3.10435
RightHand  -0.571048 2.80444 -8.36993
LeftUpLeg  -119.292 -9.69941 2.19039
LeftLeg  13.2679 -8.87766 -2.10565
LeftFoot  -7.59262 0.371756 -9.82458
LeftToes  -5.36635e-011 -6.70219e-011 5.24975e-011
1011
root  -67.4638 34.4243 1.6936 -21.9445 -61.4943 139.583
RightUpLeg  -141.647 -34.2035 -6.19472
RightLeg  18.3057 6.1112 1.92123
RightFoot  3.03722 -1.65986 13.2586
RightToes  3.49245e-010 0 -3.6325e-017
Spine  -146.882 -36.8581 -12.0081
Spine1  51.3077 -15.6927 7.66218
HEad  -27.191 -23.547 13.4279
LeftShoulder1  0.849834 1.34615 -33.3291
LeftArm  -5.72909 21.6877 -40.3228
LeftForeArm  29.1203 -1.08829 -7.44459
LeftHand  -0.126688 9.21413 -2.19402
RightShoulder  -0.863302 -5.82611 30.5661
RightArm  3.30753 -10.4507 27.4876
RightForeArm  -16.817 2.11575 2.79385
RightHand  -0.618072 4.72236 -7.34389
LeftUpLeg  -117.943 -10.6828 2.76559
LeftLeg  12.7187 -6.59972 -1.38258
LeftFoot  -10.1118 0.131097 -6.51491
LeftToes  -5.36635e-011 -6.70219e-011 5.24975e-011
1012
root  -66.8738 34.2431 2.3032 -24.2326 -59.1548 141.824
RightUpLeg  -142.76 -35.2342 -5.61656
RightLeg  16.014 8.07543 1.75122
RightFoot  4.2214 -2.12174 15.6516
RightToes  3.49245e-010 0 -3.6325e-017
Spine  -146.615 -39.5027 -12.1604
Spine1  51.6059 -17.1522 7.50465
HEad  -26.8092 -17.4612 14.2041
LeftShoulder1  0.733878 1.66206 -33.7807
LeftArm  -6.15113 26.1232 -40.8178
LeftForeArm  28.4346 -1.30102 -7.21058
LeftHand  -0.166403 9.84835 -2.80067
RightShoulder  -0.919046 -6.00483 30.0713
RightArm  4.00297 -13.2954 26.65
RightForeArm  -18.1445 3.84981 2.93481
RightHand  -0.697256 4.88071 -8.16032
LeftUpLeg  -118.113 -12.7755 2.51869
LeftLeg  11.2182 -2.6647 -0.800115
LeftFoot  -11.5139 0.0582767 -3.1615
LeftToes  -5.36635e-011 -6.70219e-011 5.24975e-011
1013
root  -66.2673 33.7808 2.90726 -18.9384 -53.9134 144.522
RightUpLeg  -152.049 -39.8982 -2.17824
RightLeg  12.5072 8.30896 0.447388
RightFoot  4.24537 -2.7277 19.9987
RightToes  3.49245e-010 0 -3.6325e-017
Spine  -151.781 -51.1155 -12.5869
Spine1  51.6928 -23.915 5.82356
HEad  -26.1542 -11.7738 15.8017
LeftShoulder1  0.772931 1.47668 -32.04
LeftArm  -7.02694 29.5619 -42.6535
LeftForeArm  31.877 -2.59166 -7.00258
LeftHand  -0.2127 9.26238 -4.62023
RightShoulder  -1.16543 -6.56365 31.5797
RightArm  5.13127 -13.6237 25.4698
RightForeArm  -16.1992 4.80464 3.21504
RightHand  -0.61544 4.7399 -7.3415
LeftUpLeg  -125.558 -14.7344 5.18697
LeftLeg  7.16619 3.88221 -1.15404
LeftFoot  -10.7833 0.0637896 0.208933
LeftToes  -5.36635e-011 -6.70219e-011 5.24975e-011
1014
root  -65.5773 33.7749 3.55518 -18.1007 -51.4735 143.603
RightUpLeg  -152.134 -41.6189 -0.411924
RightLeg  7.63338 7.33556 -1.43287
RightFoot  3.61881 -3.33265 25.1941
RightToes  3.49245e-010 0 -3.6325e-017
Spine  -151.367 -55.4423 -12.5676
Spine1  50.5707 -26.4449 5.8665
HEad  -25.8653 -8.21495 15.0103
LeftShoulder1  0.697297 1.69927 -32.5616
LeftArm  -5.72881 29.1984 -41.87
LeftForeArm  33.9502 -2.69313 -7.66098
LeftHand  -0.227514 8.86748 -5.65103
RightShoulder  -1.0851 -6.41145 30.7712
RightArm  3.8331 -14.8881 26.7909
RightForeArm  -13.5284 5.73743 2.63626
RightHand  -0.56713 4.65838 -6.81842
LeftUpLeg  -127.524 -15.3922 7.34574
LeftLeg  6.32436 6.81216 -2.26355
LeftFoot  -9.54205 0.0495417 0.602273
LeftToes  -5.36635e-011 -6.70219e-011 5.24975e-011
1015
root  -64.8362 33.807 4.20786 -17.8741 -49.7263 143.913
RightUpLeg  -153.153 -43.2399 0.698926
RightLeg  4.78144 0.909677 -2.89146
RightFoot  3.33589 -2.86524 22.0791
RightToes  3.49245e-010 0 -3.6325e-017
Spine  -150.547 -58.9848 -13.2837
Spine1  50.495 -28.9567 5.35209
HEad  -26.8378 -7.63352 13.0294
LeftShoulder1  0.561868 2.06239 -32.8776
LeftArm  -4.58532 26.6799 -40.4359
LeftForeArm  37.9248 -2.6422 -8.18203
LeftHand  -0.339271 9.23271 -8.10393
RightShoulder  -1.01717 -6.27518 30.1547
RightArm  2.35576 -15.8051 29.0026
RightForeArm  -12.5923 6.15246 2.17958
RightHand  -0.420508 3.49288 -5.77365
LeftUpLeg  -129.217 -15.4296 7.78135
LeftLeg  4.84855 8.20355 -4.05368
LeftFoot  -8.16229 0.0444139 0.149875
LeftToes  -5.36635e-011 -6.70219e-011 5.24975e-011
